# xmcd
#
# Track frame offsets:
#	150
#	7574
#	25408
#	41125
#	49849
#	62659
#	102113
#	106774
#	118724
#	143907
#	153526
#	170367
#	182803
#	196927
#	203163
#	213032
#	222126
#	240268
#	300710
#
# Disc length: 4411 seconds
#
# Revision: 0
# Processed by: cddbd v1.5.2PL0 Copyright (c) Steve Scherf et al.
# Submitted via: EZCDAudioConverter 1.2.3.1
#
DISCID=f8113913
DTITLE=J.J. Star - Jeff "J.J. Star" Duran
DYEAR=1900
DGENRE=
TTITLE0=STAND UP EVIS
TTITLE1=PAPARAZZI DAILY
TTITLE2=FAG IS THE NEW BLACK
TTITLE3=EMO BOY TEEN COCKSUCKER (REMIX)
TTITLE4=Supportive Brother
TTITLE5=CELEBRITY DEATH REHAB
TTITLE6=CASE OF BEER (FEATURING BRIAN REGAN)
TTITLE7=STILL ON DRUGS
TTITLE8=Angel investor
TTITLE9=Bleached White
TTITLE10=40 year old rapper
TTITLE11=Octabamma
TTITLE12=LOOKS LIKE I FUCKED YOU
TTITLE13=Fucking It Up
TTITLE14=Crack Russell
TTITLE15=Give It To Me All Night (Bonus)
TTITLE16=Living The Life (Bonus)
TTITLE17=Rich Men Will Not See The Kingdom Of Heaven (Spoken Word) BONUS
TTITLE18=Cry No More (Bonus)
EXTD=
EXTT0=
EXTT1=
EXTT2=
EXTT3=
EXTT4=
EXTT5=
EXTT6=
EXTT7=
EXTT8=
EXTT9=
EXTT10=
EXTT11=
EXTT12=
EXTT13=
EXTT14=
EXTT15=
EXTT16=
EXTT17=
EXTT18=
PLAYORDER=
